<svg width="1200" height="720" viewBox="0 0 1200 720" fill="none" xmlns="http://www.w3.org/2000/svg">
  <rect width="1200" height="720" rx="32" fill="#050816"/>
  <rect x="40" y="40" width="1120" height="640" rx="24" fill="url(#bg)"/>
  <rect x="80" y="96" width="360" height="28" rx="14" fill="#22D3EE" fill-opacity="0.35"/>
  <rect x="80" y="146" width="520" height="54" rx="16" fill="#0F172A" stroke="#38BDF8" stroke-opacity="0.45"/>
  <rect x="80" y="230" width="280" height="20" rx="10" fill="#94A3B8" fill-opacity="0.45"/>
  <rect x="80" y="266" width="420" height="20" rx="10" fill="#94A3B8" fill-opacity="0.3"/>
  <rect x="80" y="302" width="360" height="20" rx="10" fill="#94A3B8" fill-opacity="0.22"/>
  <rect x="760" y="132" width="280" height="220" rx="24" fill="#111827" stroke="#22D3EE" stroke-opacity="0.35"/>
  <circle cx="900" cy="242" r="74" fill="url(#ring)"/>
  <path d="M900 188C875.4 188 856 207.4 856 232V252H944V232C944 207.4 924.6 188 900 188Z" fill="#F8FAFC" fill-opacity="0.95"/>
  <path d="M900 208C883.4 208 870 221.4 870 238V252H930V238C930 221.4 916.6 208 900 208Z" fill="#0F172A"/>
  <rect x="116" y="404" width="332" height="128" rx="20" fill="#0F172A" stroke="#A78BFA" stroke-opacity="0.4"/>
  <rect x="148" y="436" width="120" height="16" rx="8" fill="#22D3EE"/>
  <rect x="148" y="468" width="220" height="14" rx="7" fill="#E2E8F0" fill-opacity="0.28"/>
  <rect x="148" y="492" width="188" height="14" rx="7" fill="#E2E8F0" fill-opacity="0.2"/>
  <rect x="492" y="404" width="240" height="128" rx="20" fill="#0F172A" stroke="#22D3EE" stroke-opacity="0.3"/>
  <rect x="524" y="438" width="176" height="14" rx="7" fill="#F8FAFC" fill-opacity="0.88"/>
  <rect x="524" y="466" width="128" height="12" rx="6" fill="#F8FAFC" fill-opacity="0.36"/>
  <rect x="760" y="404" width="280" height="128" rx="20" fill="#0F172A" stroke="#A78BFA" stroke-opacity="0.3"/>
  <rect x="792" y="438" width="154" height="14" rx="7" fill="#F8FAFC" fill-opacity="0.84"/>
  <rect x="792" y="466" width="190" height="12" rx="6" fill="#F8FAFC" fill-opacity="0.28"/>
  <text x="80" y="612" fill="#F8FAFC" font-family="Arial, Helvetica, sans-serif" font-size="38" font-weight="700">RCVN Network Channel</text>
  <text x="80" y="648" fill="#22D3EE" font-family="Arial, Helvetica, sans-serif" font-size="22" font-weight="600">Entertainment Website</text>
  <defs>
    <linearGradient id="bg" x1="128" y1="60" x2="1048" y2="660" gradientUnits="userSpaceOnUse">
      <stop stop-color="#111827"/>
      <stop offset="1" stop-color="#020617"/>
    </linearGradient>
    <radialGradient id="ring" cx="0" cy="0" r="1" gradientUnits="userSpaceOnUse" gradientTransform="translate(900 242) rotate(90) scale(74)">
      <stop stop-color="#22D3EE"/>
      <stop offset="1" stop-color="#0F172A" stop-opacity="0.1"/>
    </radialGradient>
  </defs>
</svg>
